<mxfile host="Electron" modified="2023-12-06T23:12:32.512Z" agent="Mozilla/5.0 (Windows NT 10.0; Win64; x64) AppleWebKit/537.36 (KHTML, like Gecko) draw.io/22.1.2 Chrome/114.0.5735.289 Electron/25.9.4 Safari/537.36" etag="-EzFPrawywKcC-OIvxF7" version="22.1.2" type="device">
  <diagram id="C5RBs43oDa-KdzZeNtuy" name="Page-1">
    <mxGraphModel dx="398" dy="614" grid="1" gridSize="10" guides="1" tooltips="1" connect="1" arrows="1" fold="1" page="0" pageScale="1" pageWidth="827" pageHeight="1169" math="0" shadow="0">
      <root>
        <mxCell id="WIyWlLk6GJQsqaUBKTNV-0" />
        <mxCell id="WIyWlLk6GJQsqaUBKTNV-1" parent="WIyWlLk6GJQsqaUBKTNV-0" />
        <mxCell id="7DPP3QG8edTxBmZySJ_B-2" style="edgeStyle=orthogonalEdgeStyle;rounded=0;orthogonalLoop=1;jettySize=auto;html=1;exitX=0.5;exitY=1;exitDx=0;exitDy=0;entryX=0.5;entryY=0;entryDx=0;entryDy=0;" edge="1" parent="WIyWlLk6GJQsqaUBKTNV-1" source="7DPP3QG8edTxBmZySJ_B-0" target="7DPP3QG8edTxBmZySJ_B-1">
          <mxGeometry relative="1" as="geometry" />
        </mxCell>
        <mxCell id="7DPP3QG8edTxBmZySJ_B-0" value="STAR" style="ellipse;whiteSpace=wrap;html=1;" vertex="1" parent="WIyWlLk6GJQsqaUBKTNV-1">
          <mxGeometry x="50" y="30" width="120" height="80" as="geometry" />
        </mxCell>
        <mxCell id="7DPP3QG8edTxBmZySJ_B-4" style="edgeStyle=orthogonalEdgeStyle;rounded=0;orthogonalLoop=1;jettySize=auto;html=1;exitX=0.5;exitY=1;exitDx=0;exitDy=0;entryX=0.5;entryY=0;entryDx=0;entryDy=0;" edge="1" parent="WIyWlLk6GJQsqaUBKTNV-1" source="7DPP3QG8edTxBmZySJ_B-1" target="7DPP3QG8edTxBmZySJ_B-3">
          <mxGeometry relative="1" as="geometry" />
        </mxCell>
        <mxCell id="7DPP3QG8edTxBmZySJ_B-1" value="tạo ra struct sinh viên gồm cá yếu tố như đề" style="rounded=0;whiteSpace=wrap;html=1;" vertex="1" parent="WIyWlLk6GJQsqaUBKTNV-1">
          <mxGeometry x="50" y="140" width="120" height="60" as="geometry" />
        </mxCell>
        <mxCell id="7DPP3QG8edTxBmZySJ_B-6" style="edgeStyle=orthogonalEdgeStyle;rounded=0;orthogonalLoop=1;jettySize=auto;html=1;exitX=0.5;exitY=1;exitDx=0;exitDy=0;entryX=0.5;entryY=0;entryDx=0;entryDy=0;" edge="1" parent="WIyWlLk6GJQsqaUBKTNV-1" source="7DPP3QG8edTxBmZySJ_B-3" target="7DPP3QG8edTxBmZySJ_B-5">
          <mxGeometry relative="1" as="geometry" />
        </mxCell>
        <mxCell id="7DPP3QG8edTxBmZySJ_B-3" value="dùng vòng lặp forr duyệt các phần tử trong struct" style="rounded=0;whiteSpace=wrap;html=1;" vertex="1" parent="WIyWlLk6GJQsqaUBKTNV-1">
          <mxGeometry x="50" y="240" width="120" height="60" as="geometry" />
        </mxCell>
        <mxCell id="7DPP3QG8edTxBmZySJ_B-8" style="edgeStyle=orthogonalEdgeStyle;rounded=0;orthogonalLoop=1;jettySize=auto;html=1;exitX=0.5;exitY=1;exitDx=0;exitDy=0;" edge="1" parent="WIyWlLk6GJQsqaUBKTNV-1" source="7DPP3QG8edTxBmZySJ_B-5" target="7DPP3QG8edTxBmZySJ_B-7">
          <mxGeometry relative="1" as="geometry" />
        </mxCell>
        <mxCell id="7DPP3QG8edTxBmZySJ_B-5" value="nhập các thông tin đến struct" style="rounded=0;whiteSpace=wrap;html=1;" vertex="1" parent="WIyWlLk6GJQsqaUBKTNV-1">
          <mxGeometry x="50" y="380" width="120" height="60" as="geometry" />
        </mxCell>
        <mxCell id="7DPP3QG8edTxBmZySJ_B-10" style="edgeStyle=orthogonalEdgeStyle;rounded=0;orthogonalLoop=1;jettySize=auto;html=1;exitX=0.5;exitY=1;exitDx=0;exitDy=0;entryX=0.5;entryY=0;entryDx=0;entryDy=0;" edge="1" parent="WIyWlLk6GJQsqaUBKTNV-1" source="7DPP3QG8edTxBmZySJ_B-7" target="7DPP3QG8edTxBmZySJ_B-9">
          <mxGeometry relative="1" as="geometry" />
        </mxCell>
        <mxCell id="7DPP3QG8edTxBmZySJ_B-7" value="mở file chọn mode đọc và dùng hàm fputs nhậ dữ liệu vào file từ chương trình" style="rounded=0;whiteSpace=wrap;html=1;" vertex="1" parent="WIyWlLk6GJQsqaUBKTNV-1">
          <mxGeometry x="50" y="480" width="120" height="60" as="geometry" />
        </mxCell>
        <mxCell id="7DPP3QG8edTxBmZySJ_B-9" value="" style="ellipse;whiteSpace=wrap;html=1;" vertex="1" parent="WIyWlLk6GJQsqaUBKTNV-1">
          <mxGeometry x="50" y="590" width="120" height="80" as="geometry" />
        </mxCell>
      </root>
    </mxGraphModel>
  </diagram>
</mxfile>
